
<svg xmlns="http://www.w3.org/2000/svg" id="Flat" height="512px" viewBox="0 0 512 512" width="512px" class=""><g><link xmlns="" type="text/css" rel="stylesheet" id="dark-mode-general-link"/><link xmlns="" type="text/css" rel="stylesheet" id="dark-mode-custom-link"/><style xmlns="" type="text/css" id="dark-mode-custom-style"/><path d="m56 160v16l35.008 182.043a32 32 0 0 0 31.424 25.957h267.136a32 32 0 0 0 31.424-25.957l35.008-182.043v-16z" fill="#eb423f" data-original="#EB423F" class="" style="fill:#FFB531" data-old_color="#eb423f"/><path d="m472 176h-432a16 16 0 0 1 -16-16 16 16 0 0 1 16-16h432a16 16 0 0 1 16 16 16 16 0 0 1 -16 16z" fill="#c7312e" data-original="#C7312E" class="active-path" style="fill:#F69407" data-old_color="#c7312e"/><rect fill="#4f5659" height="33.941" rx="16" transform="matrix(.707 -.707 .707 .707 -119.931 142.461)" width="192.333" x="15.833" y="199.029" data-original="#4F5659" class=""/><rect fill="#4f5659" height="192.333" rx="16" transform="matrix(.707 -.707 .707 .707 -35.578 346.108)" width="33.941" x="383.029" y="119.833" data-original="#4F5659" class=""/><g fill="#e9eef2"><circle cx="168" cy="152" r="24" data-original="#E9EEF2" class="" style="fill:#E9EEF2"/><circle cx="344" cy="152" r="24" data-original="#E9EEF2" class="" style="fill:#E9EEF2"/><path d="m160 336a16 16 0 0 1 -16-16v-80a16 16 0 0 1 16-16 16 16 0 0 1 16 16v80a16 16 0 0 1 -16 16z" data-original="#E9EEF2" class="" style="fill:#E9EEF2"/><path d="m224 336a16 16 0 0 1 -16-16v-80a16 16 0 0 1 16-16 16 16 0 0 1 16 16v80a16 16 0 0 1 -16 16z" data-original="#E9EEF2" class="" style="fill:#E9EEF2"/><path d="m288 336a16 16 0 0 1 -16-16v-80a16 16 0 0 1 16-16 16 16 0 0 1 16 16v80a16 16 0 0 1 -16 16z" data-original="#E9EEF2" class="" style="fill:#E9EEF2"/><path d="m352 336a16 16 0 0 1 -16-16v-80a16 16 0 0 1 16-16 16 16 0 0 1 16 16v80a16 16 0 0 1 -16 16z" data-original="#E9EEF2" class="" style="fill:#E9EEF2"/></g></g> </svg>
